<svg xmlns="http://www.w3.org/2000/svg" width="340.624" height="115.106" viewBox="0 0 340.624 115.106"><g transform="translate(-0.1)"><g transform="translate(0.1 0)"><path d="M24.365,19.259a64.177,64.177,0,0,1,7.682.61V1.7H44.179V67.727H34.241c-.183-.244-.975-2.8-1.1-3.109A28.277,28.277,0,0,1,19,68.581C9.245,68.581.1,62.423.1,45.291.039,25.355,10.708,19.259,24.365,19.259Zm-2.5,38.958A23.929,23.929,0,0,0,31.986,55.29v-25.3a31.487,31.487,0,0,0-6.341-.61c-9.084,0-13.169,4.39-13.169,15.242C12.537,54.071,16.073,58.217,21.865,58.217Z" transform="translate(-0.1 -0.664)" fill="#fff"/><path d="M129.421,77.057a65.225,65.225,0,0,1-18.961,3.048c-15.669,0-23.96-7.682-23.96-24.753,0-16.7,8.84-24.753,22.924-24.753,16.522,0,20.851,10.669,20.851,22.619v5.487H99.181c.061,7.987,5.487,10.852,14.266,10.852a61.148,61.148,0,0,0,15.912-2.865ZM117.837,49.866c-.061-4.451-1.463-9.755-9.145-9.755-6.158,0-9.45,4.512-9.45,9.755Z" transform="translate(-33.824 -11.944)" fill="#fff"/><path d="M203.807,31.755l-.427,10.486a86.034,86.034,0,0,0-12.437-1.28c-6.4,0-9.084,1.28-9.084,4.268,0,3.109,3.841,3.9,8.9,4.755,7.194,1.28,15.547,3.109,15.547,14.266,0,10.73-7.072,15.851-20.18,15.851a135.61,135.61,0,0,1-16.461-1.036V68.213A124.254,124.254,0,0,0,185.517,69.8c5.853,0,8.292-1.829,8.292-5,0-3.292-4.512-3.963-10.06-4.938C177.165,58.641,169.3,56.2,169.3,45.9c0-11.34,8.231-15.3,20.18-15.3A80.188,80.188,0,0,1,203.807,31.755Z" transform="translate(-66.143 -11.94)" fill="#fff"/><path d="M282.236,22c0,7.987-2.622,16.461-11.279,21.7l4.512,7.621c2.317,4.085,5.792,5.975,10.669,6.036V68.332a17.327,17.327,0,0,1-3.963.244c-7.072,0-13.169-3.292-17.68-11.523l-4.573-8.413-4.329,1.829v17.5H243.4V2h12.193V40.1l4.877-2.073c4.573-2.012,9.633-5.975,9.633-15.425V20.473H282.3Z" transform="translate(-95.067 -0.781)" fill="#fff"/><path d="M337.959,15.4H325.4V4h12.559Zm-.122,53.224H325.644V21.193h12.193Z" transform="translate(-127.074 -1.561)" fill="#fff"/><path d="M390.752,10.73a60.208,60.208,0,0,0-7.438-.671c-6.036,0-7.011,2.073-7.011,6.4v3.231h12.8V30.057h-12.62V67.064H364.292V30.057H358.5V20.668l5.792-.975V14.083C364.292,4.024,368.864,0,379.716,0a84.176,84.176,0,0,1,11.1.854V10.73Z" transform="translate(-139.993 0)" fill="#fff"/><path d="M425.766,97.474l5.853-17.741h-4.938L411.5,32.3h13.352l10.121,34.264h.671L446.007,32.3h13.047L438.447,97.474Z" transform="translate(-160.681 -12.608)" fill="#fff"/><path d="M12.019,176.192A18.125,18.125,0,0,1,5.8,175.034V171.01H7.385a4.749,4.749,0,0,0,4.573,3.048c2.256,0,4.146-.793,4.146-3.414s-2.744-3.292-5.121-3.963-4.938-1.707-4.938-4.938c0-4.085,3.353-5.243,7.255-5.243a26.366,26.366,0,0,1,5.365.671v3.963h-1.4a4.643,4.643,0,0,0-4.39-2.561c-2.195,0-3.78,1.1-3.78,2.8,0,1.89,2.012,2.439,4.573,3.231,2.439.732,5.548,1.585,5.548,5.365C19.152,174.424,15.86,176.192,12.019,176.192Z" transform="translate(-2.325 -61.086)" fill="#fff"/><path d="M47.915,170.318h1.158V174.4a17.033,17.033,0,0,1-6.889,1.829c-5.975,0-9.084-2.987-9.084-9.877,0-6.28,3.17-9.755,8.6-9.755,6.584,0,7.865,4.573,7.865,9.145v1.463H36.27c0,4.755,2.134,6.767,5.853,6.767C44.318,173.976,47.061,173.61,47.915,170.318Zm-1.341-5.243c0-2.8-.61-6.158-4.938-6.158-3.78,0-5.365,2.622-5.365,6.158Z" transform="translate(-12.981 -61.125)" fill="#fff"/><path d="M79.1,171.071h1.646v3.719a14.206,14.206,0,0,1-5.914,1.341c-4.329,0-9.328-2.073-9.328-9.816s5-9.816,9.328-9.816a14,14,0,0,1,5.914,1.341v3.719H79.035a4.446,4.446,0,0,0-4.329-2.8c-3.963,0-6.1,2.8-6.1,7.56,0,4.39,1.951,7.56,6.158,7.56A4.313,4.313,0,0,0,79.1,171.071Z" transform="translate(-25.627 -61.086)" fill="#fff"/><path d="M97.939,159.87c0-.793-.427-.854-.915-.854H95.5v-1.89h5.365v3.658a14.726,14.726,0,0,1,6.523-4.085v3.719a23.451,23.451,0,0,0-6.4,1.89v11.584h2.439v1.89H95.5v-1.829h1.524c.488,0,.915-.061.915-.854Z" transform="translate(-37.337 -61.165)" fill="#fff"/><path d="M133.315,170.318h1.158V174.4a17.033,17.033,0,0,1-6.889,1.829c-5.975,0-9.084-2.987-9.084-9.877,0-6.28,3.17-9.755,8.6-9.755,6.584,0,7.865,4.573,7.865,9.145v1.463H121.67c0,4.755,2.134,6.767,5.853,6.767C129.718,173.976,132.461,173.61,133.315,170.318Zm-1.341-5.243c0-2.8-.61-6.158-4.938-6.158-3.78,0-5.365,2.622-5.365,6.158Z" transform="translate(-46.315 -61.125)" fill="#fff"/><path d="M155.143,168.351a2.546,2.546,0,0,0,2.865,2.865,10.347,10.347,0,0,0,3.048-.549v2.378a14.52,14.52,0,0,1-3.963.61c-2.622,0-4.877-1.28-4.877-4.938v-11.95H149.9v-1.585c2.256-.732,3.109-2.683,3.536-5.182h1.707v4.512h6.219v2.256h-6.219Z" transform="translate(-58.571 -58.549)" fill="#fff"/><path d="M183.728,165.113v-2.439c0-2.012-1.28-3.841-4.146-3.841-1.341,0-4.085.122-4.877,3.048H173.18V157.8a23.163,23.163,0,0,1,6.463-1.1c3.78,0,7.072,1.463,7.072,6.584v9.267a1.338,1.338,0,0,0,1.1,1.463h1.28v1.829a5.87,5.87,0,0,1-2.073.244c-1.463,0-2.865-.366-3.17-2.134a10.683,10.683,0,0,1-6.28,2.134c-2.8,0-5.67-1.768-5.67-5.365,0-3.109,2.378-5.609,7.377-5.609Zm0,2.073h-4.085c-2.439,0-4.573.732-4.573,3.414,0,2.317,1.585,3.109,3.536,3.109a9.175,9.175,0,0,0,5.121-1.829Z" transform="translate(-67.158 -61.165)" fill="#fff"/><path d="M206.039,159.87c0-.793-.427-.854-.915-.854H203.6v-1.89h5.365v3.658a14.726,14.726,0,0,1,6.523-4.085v3.719a23.451,23.451,0,0,0-6.4,1.89v11.584h2.439v1.89h-7.865v-1.829h1.463c.549,0,.915-.061.915-.854Z" transform="translate(-79.532 -61.165)" fill="#fff"/><path d="M232.711,169.292a3.749,3.749,0,0,0,.854-.061v2.012a8.278,8.278,0,0,1-1.768.183c-1.89,0-3.658-.732-3.658-3.536V155.147c0-.793-.427-.854-.915-.854H225.7V152.4h5.426V167.1C231.126,168.5,231.492,169.292,232.711,169.292ZM228.017,144.6h3.17v3.292h-3.17Z" transform="translate(-88.158 -56.442)" fill="#fff"/><path d="M254.467,165.113v-2.439c0-2.012-1.28-3.841-4.146-3.841-1.341,0-4.085.122-4.877,3.048h-1.524V157.8a23.163,23.163,0,0,1,6.462-1.1c3.78,0,7.072,1.463,7.072,6.584v9.267a1.253,1.253,0,0,0,1.1,1.4h1.341v1.829a7.727,7.727,0,0,1-2.073.244c-1.463,0-2.865-.366-3.17-2.134a11.118,11.118,0,0,1-6.28,2.134c-2.8,0-5.67-1.768-5.67-5.365,0-3.109,2.378-5.609,7.377-5.609h4.39Zm0,2.073h-4.085c-2.439,0-4.573.732-4.573,3.414,0,2.317,1.585,3.109,3.536,3.109a9.175,9.175,0,0,0,5.121-1.829Z" transform="translate(-94.793 -61.165)" fill="#fff"/><path d="M291.649,167.65a1.253,1.253,0,0,0,1.1,1.4h1.28v1.829a7.726,7.726,0,0,1-2.073.244c-1.4,0-2.744-.427-3.17-2.134a13.071,13.071,0,0,1-6.889,2.317c-3.719,0-7.194-2.561-7.194-9.389,0-7.743,4.207-10.242,9.267-10.242a23.528,23.528,0,0,1,4.633.61v-5.243c0-.793-.427-.854-.914-.854h-1.829V144.3h5.731Zm-9.145,1.524a10.066,10.066,0,0,0,6.158-2.378V154.786a16.922,16.922,0,0,0-4.268-.732c-5.06,0-6.523,3.292-6.523,7.865,0,5.06,1.89,7.255,4.633,7.255Z" transform="translate(-107.284 -56.324)" fill="#fff"/><path d="M320.106,156.6c4.694,0,9.206,2.561,9.206,9.816s-4.512,9.816-9.206,9.816-9.206-2.5-9.206-9.816S315.412,156.6,320.106,156.6Zm0,17.376c4.39,0,6.158-3.048,6.158-7.56s-1.768-7.56-6.158-7.56-6.1,3.048-6.1,7.56,1.768,7.56,6.1,7.56Z" transform="translate(-121.414 -61.125)" fill="#fff"/><path d="M362.739,159.87c0-.793-.427-.854-.914-.854H360.3v-1.89h5.365v3.658a14.726,14.726,0,0,1,6.523-4.085v3.719a23.451,23.451,0,0,0-6.4,1.89v11.584h2.439v1.89h-7.865v-1.829h1.524c.549,0,.914-.061.914-.854V159.87Z" transform="translate(-140.696 -61.165)" fill="#fff"/><path d="M398.115,170.318h1.158V174.4a17.033,17.033,0,0,1-6.889,1.829c-5.975,0-9.084-2.987-9.084-9.877,0-6.28,3.17-9.755,8.6-9.755,6.584,0,7.865,4.573,7.865,9.145v1.463H386.47c0,4.755,2.134,6.767,5.853,6.767C394.457,173.976,397.261,173.61,398.115,170.318Zm-1.4-5.243c0-2.8-.61-6.158-4.938-6.158-3.78,0-5.365,2.622-5.365,6.158Z" transform="translate(-149.674 -61.125)" fill="#fff"/><path d="M417.739,159.87c0-.793-.427-.854-.914-.854H415.3v-1.89h5.487v2.134a11.258,11.258,0,0,1,6.4-2.561,5.234,5.234,0,0,1,5.06,2.865c2.561-1.829,4.755-2.865,6.889-2.865,2.865,0,5.548,1.463,5.548,5.426V173.1c0,.793.427.854.914.854h1.524v1.89H439.26v-1.89H441.7V162.98c0-2.622-1.158-3.719-3.78-3.719a10.373,10.373,0,0,0-5.182,2.012v12.681h2.439v1.89H427.31v-1.89h2.439V162.98c0-2.622-1.1-3.719-3.78-3.719-1.707,0-3.6,1.036-5.182,2.073v12.62h2.439v1.89h-7.865v-1.89h1.524c.549,0,.914-.061.914-.854Z" transform="translate(-162.164 -61.165)" fill="#fff"/><path d="M480.706,156.6c4.755,0,9.206,2.561,9.206,9.816s-4.512,9.816-9.206,9.816-9.206-2.5-9.206-9.816S476.012,156.6,480.706,156.6Zm0,17.376c4.39,0,6.158-3.048,6.158-7.56s-1.768-7.56-6.158-7.56-6.1,3.048-6.1,7.56,1.768,7.56,6.1,7.56Z" transform="translate(-184.101 -61.125)" fill="#fff"/><path d="M511.343,168.351a2.546,2.546,0,0,0,2.865,2.865,10.347,10.347,0,0,0,3.048-.549v2.378a14.52,14.52,0,0,1-3.963.61c-2.622,0-4.877-1.28-4.877-4.938v-11.95H506.1v-1.585c2.256-.732,3.109-2.683,3.536-5.182h1.707v4.512h6.28v2.256H511.4Z" transform="translate(-197.606 -58.549)" fill="#fff"/><path d="M537.806,156.6c4.755,0,9.206,2.561,9.206,9.816s-4.451,9.816-9.206,9.816-9.206-2.5-9.206-9.816S533.051,156.6,537.806,156.6Zm0,17.376c4.39,0,6.158-3.048,6.158-7.56s-1.768-7.56-6.158-7.56-6.1,3.048-6.1,7.56,1.768,7.56,6.1,7.56Z" transform="translate(-206.388 -61.125)" fill="#fff"/></g></g></svg>